<?xml version="1.0" encoding="utf-8"?>
<!-- Generator: Adobe Illustrator 20.1.0, SVG Export Plug-In . SVG Version: 6.00 Build 0)  -->
<svg version="1.1" id="Layer_1" xmlns="http://www.w3.org/2000/svg" xmlns:xlink="http://www.w3.org/1999/xlink" x="0px" y="0px"
	 viewBox="0 0 400 225" style="enable-background:new 0 0 400 225;" xml:space="preserve">
<style type="text/css">
	.st0{fill:#8DB7E2;}
	.st1{fill:#FFFFFF;}
	.st2{opacity:0.15;}
	.st3{fill:#164A75;}
	.st4{fill:#206491;}
	.st5{fill:none;}
</style>
<title>facebook</title>
<g id="Layer_2">
	<g id="facebook">
		<g>
			<path class="st0" d="M150.9,180.9c0,7.7,6.2,14.6,13.9,14.6h86.8c7.7,0,12.4-7.6,12.4-15.3V46.1c0-7.7-4.7-13.6-12.4-13.6h-86.8
				c-7.6-0.1-13.8,6-13.9,13.6c0,0,0,0.1,0,0.1l0.1,134.4"/>
			<g>
				<rect x="174" y="64.5" class="st1" width="65" height="7"/>
				<rect x="174" y="86.5" class="st1" width="65" height="8"/>
				<rect x="174" y="110.5" class="st1" width="65" height="6"/>
				<rect x="174" y="133.5" class="st1" width="65" height="5"/>
				<rect x="174" y="154.5" class="st1" width="65" height="6"/>
			</g>
			<g class="st2">
				<path class="st3" d="M264,180.2L264,180.2L179.1,95L150,111.5v68.7c0,7.7,7.1,15.3,14.8,15.3h86.8
					C259.3,195.5,264,187.9,264,180.2z"/>
			</g>
			<path class="st4" d="M180.3,111.8h-10c-7.9,0-9.3,3.8-9.3,9.2v12.1h18.7l-2.5,18.9h-16.3v48.6h-19.6v-48.6H125v-18.9h16.3v-13.9
				c0-16.2,9.9-25,24.4-25c4.9,0,9.7,0.2,14.6,0.8L180.3,111.8z"/>
		</g>
		<rect class="st5" width="400" height="225"/>
	</g>
</g>
</svg>
