<svg id="Layer_1" data-name="Layer 1" xmlns="http://www.w3.org/2000/svg" viewBox="0 0 237.65 237.52">
  <style>
    .white{
    fill:#fff;
    }
  </style>
  <title>close</title>
  <path class="white" d="M145.83,125.19l96.32-96.32a13.18,13.18,0,0,0,0-18.65,13.5,13.5,0,0,0-18.65,0l-96.31,96.31L30.87,10.22a13.5,13.5,0,0,0-18.65,0,13.2,13.2,0,0,0,0,18.65l96.32,96.32L12.22,221.5a13.2,13.2,0,0,0,0,18.65h0a13.21,13.21,0,0,0,18.65,0l96.31-96.31,96.32,96.32a13.19,13.19,0,1,0,18.65-18.65Z" transform="translate(-8.36 -6.49)"/>
</svg>
